<svg xmlns="http://www.w3.org/2000/svg" width="46.500" height="32.184" viewBox="0 0 46.500 32.184"><defs><style>.a{fill:#ff4f3d;}.b,.c{fill:none;stroke:#3c1400;}.b{stroke-miterlimit:10;}</style></defs><g transform="translate(0.5 0.5)"><path class="a" d="M1722.616,731.837a4.544,4.544,0,1,1,4.545,4.545,4.545,4.545,0,0,1-4.545-4.545" transform="translate(-1690.267 -710.077)"/><path class="b" d="M1673.032,679.353h-35.578a4.957,4.957,0,0,0-4.918,4.985v21.213a4.957,4.957,0,0,0,4.918,4.985h35.578a4.957,4.957,0,0,0,4.918-4.985V684.338A4.957,4.957,0,0,0,1673.032,679.353Z" transform="translate(-1632.536 -679.353)"/><path class="c" d="M2881.153-3634.657h35.239" transform="translate(-2876.403 3641.236)"/><path class="c" d="M2881.153-3634.657h35.239" transform="translate(-2876.403 3647.296)"/><path class="c" d="M2881.153-3634.657h23.024" transform="translate(-2876.403 3653.354)"/><path class="c" d="M2881.153-3634.657h23.2" transform="translate(-2876.403 3659.414)"/></g></svg>